<svg id="visual" viewBox="0 0 960 540" width="960" height="540" xmlns="http://www.w3.org/2000/svg" xmlns:xlink="http://www.w3.org/1999/xlink" version="1.1"><rect x="0" y="0" width="960" height="540" fill="#212121"></rect><path d="M0 87L16 99.2C32 111.3 64 135.7 96 132.3C128 129 160 98 192 96.3C224 94.7 256 122.3 288 127.7C320 133 352 116 384 109.7C416 103.3 448 107.7 480 115.2C512 122.7 544 133.3 576 140.2C608 147 640 150 672 137.8C704 125.7 736 98.3 768 91.7C800 85 832 99 864 106.3C896 113.7 928 114.3 944 114.7L960 115L960 0L944 0C928 0 896 0 864 0C832 0 800 0 768 0C736 0 704 0 672 0C640 0 608 0 576 0C544 0 512 0 480 0C448 0 416 0 384 0C352 0 320 0 288 0C256 0 224 0 192 0C160 0 128 0 96 0C64 0 32 0 16 0L0 0Z" fill="#B3FF00" stroke-linecap="round" stroke-linejoin="miter"></path></svg>